<svg width="256" height="256" viewBox="0 0 256 256" fill="none" xmlns="http://www.w3.org/2000/svg">
<g clip-path="url(#clip0_301_5858)">
<rect width="256" height="256" fill="#1E1E1E"/>
<path d="M1.53614 -17.8H0.560211V305H1.53614V-17.8Z" fill="#6C150D"/>
<path d="M19.754 -17.8H18.778V305H19.754V-17.8Z" fill="#6C150D"/>
<path d="M37.9707 -17.8H36.9947V305H37.9707V-17.8Z" fill="#6C150D"/>
<path d="M56.1862 -17.8H55.2103V305H56.1862V-17.8Z" fill="#6C150D"/>
<path d="M74.404 -17.8H73.4281V305H74.404V-17.8Z" fill="#6C150D"/>
<path d="M92.6207 -17.8H91.6448V305H92.6207V-17.8Z" fill="#6C150D"/>
<path d="M110.837 -17.8H109.861V305H110.837V-17.8Z" fill="#6C150D"/>
<path d="M129.054 -17.8H128.078V305H129.054V-17.8Z" fill="#6C150D"/>
<path d="M147.271 -17.8H146.295V305H147.271V-17.8Z" fill="#6C150D"/>
<path d="M165.487 -17.8H164.511V305H165.487V-17.8Z" fill="#6C150D"/>
<path d="M183.705 -17.8H182.729V305H183.705V-17.8Z" fill="#6C150D"/>
<path d="M201.922 -17.8H200.946V305H201.922V-17.8Z" fill="#6C150D"/>
<path d="M220.138 -17.8H219.163V305H220.138V-17.8Z" fill="#6C150D"/>
<path d="M238.355 -17.8H237.379V305H238.355V-17.8Z" fill="#6C150D"/>
<path d="M256.572 -17.8H255.596V305H256.572V-17.8Z" fill="#6C150D"/>
<path d="M434 13.9119H-104V14.7899H434V13.9119Z" fill="#6C150D"/>
<path d="M434 31.2042H-104V32.0822H434V31.2042Z" fill="#6C150D"/>
<path d="M434 48.4978H-104V49.3758H434V48.4978Z" fill="#6C150D"/>
<path d="M434 65.7902H-104V66.6682H434V65.7902Z" fill="#6C150D"/>
<path d="M434 83.0836H-104V83.9616H434V83.0836Z" fill="#6C150D"/>
<path d="M434 100.376H-104V101.254H434V100.376Z" fill="#6C150D"/>
<path d="M434 117.669H-104V118.548H434V117.669Z" fill="#6C150D"/>
<path d="M434 134.962H-104V135.84H434V134.962Z" fill="#6C150D"/>
<path d="M434 152.254H-104V153.132H434V152.254Z" fill="#6C150D"/>
<path d="M434 169.547H-104V170.425H434V169.547Z" fill="#6C150D"/>
<path d="M434 186.84H-104V187.718H434V186.84Z" fill="#6C150D"/>
<path d="M434 204.132H-104V205.01H434V204.132Z" fill="#6C150D"/>
<path d="M434 221.426H-104V222.304H434V221.426Z" fill="#6C150D"/>
<path d="M434 238.718H-104V239.596H434V238.718Z" fill="#6C150D"/>
<path d="M35.5466 110.978V23.122H103.391C106.401 23.122 109.126 23.8542 111.566 25.3184C114.088 26.7827 116.081 28.7757 117.545 31.2975C119.091 33.8193 119.864 36.5851 119.864 39.595V57.0442C119.864 58.183 119.742 59.2812 119.498 60.3388C119.335 61.3149 119.05 62.2504 118.644 63.1453C120.108 65.179 121.247 67.2127 122.06 69.2464C122.955 71.1987 123.403 73.1917 123.403 75.2254V94.5049C123.403 97.5148 122.63 100.281 121.084 102.802C119.62 105.324 117.627 107.317 115.105 108.782C112.665 110.246 109.939 110.978 106.93 110.978H35.5466ZM52.3857 96.2132H106.441C107.011 96.2132 107.499 96.0099 107.906 95.6031C108.394 95.1964 108.638 94.6676 108.638 94.0168V75.8355C108.638 75.1848 108.394 74.656 107.906 74.2493C107.499 73.8425 107.011 73.6392 106.441 73.6392H52.3857C51.8162 73.6392 51.2875 73.8425 50.7994 74.2493C50.3926 74.656 50.1893 75.1848 50.1893 75.8355V94.0168C50.1893 94.6676 50.3926 95.1964 50.7994 95.6031C51.2875 96.0099 51.8162 96.2132 52.3857 96.2132ZM52.3857 58.8745H102.781C103.432 58.8745 103.96 58.6711 104.367 58.2644C104.774 57.7763 104.977 57.2475 104.977 56.6781V40.0831C104.977 39.4323 104.774 38.9035 104.367 38.4968C103.96 38.0901 103.432 37.8867 102.781 37.8867H52.3857C51.8162 37.8867 51.2875 38.0901 50.7994 38.4968C50.3926 38.9035 50.1893 39.4323 50.1893 40.0831V56.6781C50.1893 57.2475 50.3926 57.7763 50.7994 58.2644C51.2875 58.6711 51.8162 58.8745 52.3857 58.8745Z" fill="white"/>
<path d="M136.829 110.978V23H151.471V96.2132H224.685V110.978H136.829Z" fill="white"/>
<path d="M136.352 233V145.144H151.117V181.751H173.569L204.196 145.144H220.669V148.683L186.747 189.072L220.669 229.461V233H204.196L173.569 196.393H151.117V233H136.352Z" fill="white"/>
<path d="M44.2633 161.378C44.2633 156.983 47.8262 153.42 52.2212 153.42H102.622C107.017 153.42 110.58 156.983 110.58 161.378V211.779C110.58 216.174 107.017 219.737 102.622 219.737H52.2212C47.8262 219.737 44.2633 216.174 44.2633 211.779V161.378Z" fill="#EB4D3F"/>
<path fill-rule="evenodd" clip-rule="evenodd" d="M52.2212 140.157H102.622C114.342 140.157 123.843 149.658 123.843 161.378V211.779C123.843 223.499 114.342 233 102.622 233H52.2212C40.5011 233 31 223.499 31 211.779V161.378C31 149.658 40.5011 140.157 52.2212 140.157ZM52.2212 153.42C47.8262 153.42 44.2633 156.983 44.2633 161.378V211.779C44.2633 216.174 47.8262 219.737 52.2212 219.737H102.622C107.017 219.737 110.58 216.174 110.58 211.779V161.378C110.58 156.983 107.017 153.42 102.622 153.42H52.2212Z" fill="white"/>
<path d="M70.6875 196.244L60.8168 186.653L57.5265 189.85L70.6875 202.638L98.8895 175.235L95.5992 172.038L70.6875 196.244Z" fill="white"/>
<path fill-rule="evenodd" clip-rule="evenodd" d="M95.5992 170.189L100.793 175.235L70.6875 204.487L55.6233 189.85L60.8168 184.804L70.6875 194.395L95.5992 170.189ZM95.5992 173.888L70.6875 198.093L60.8168 188.502L59.4298 189.85L70.6875 200.789L96.9862 175.235L95.5992 173.888Z" fill="white"/>
</g>
<defs>
<clipPath id="clip0_301_5858">
<rect width="256" height="256" fill="white"/>
</clipPath>
</defs>
</svg>
